<mxfile host="app.diagrams.net" modified="2021-09-25T03:18:18.270Z" agent="5.0 (Windows NT 10.0; Win64; x64) AppleWebKit/537.36 (KHTML, like Gecko) Chrome/94.0.4606.61 Safari/537.36" etag="EVSMM92O_1F9DF1r-3qk" version="15.3.2" type="github">
  <diagram id="IKTnQqFtLfWjOVM5KkCs" name="Page-1">
    <mxGraphModel dx="1002" dy="682" grid="1" gridSize="10" guides="1" tooltips="1" connect="1" arrows="1" fold="1" page="1" pageScale="1" pageWidth="827" pageHeight="1169" math="0" shadow="0">
      <root>
        <mxCell id="0" />
        <mxCell id="1" parent="0" />
        <mxCell id="PxKvnaStJWQL-dz4j-eh-23" value="" style="rounded=0;whiteSpace=wrap;html=1;verticalAlign=top;" parent="1" vertex="1">
          <mxGeometry x="220" y="40" width="400" height="520" as="geometry" />
        </mxCell>
        <mxCell id="PxKvnaStJWQL-dz4j-eh-1" value="&lt;b&gt;&lt;font style=&quot;font-size: 18px&quot;&gt;Doctor&lt;/font&gt;&lt;/b&gt;" style="shape=umlActor;verticalLabelPosition=bottom;verticalAlign=top;html=1;" parent="1" vertex="1">
          <mxGeometry x="130" y="240" width="30" height="60" as="geometry" />
        </mxCell>
        <mxCell id="PxKvnaStJWQL-dz4j-eh-2" value="&lt;b&gt;&lt;font style=&quot;font-size: 19px&quot;&gt;Administrator&lt;/font&gt;&lt;/b&gt;" style="shape=umlActor;verticalLabelPosition=bottom;verticalAlign=top;html=1;" parent="1" vertex="1">
          <mxGeometry x="680" y="240" width="30" height="60" as="geometry" />
        </mxCell>
        <mxCell id="PxKvnaStJWQL-dz4j-eh-4" value="&lt;b style=&quot;font-size: 20px&quot;&gt;&lt;font style=&quot;font-size: 20px&quot;&gt;&lt;br&gt;register&lt;/font&gt;&lt;/b&gt;" style="ellipse;whiteSpace=wrap;html=1;verticalAlign=top;" parent="1" vertex="1">
          <mxGeometry x="350" y="50" width="140" height="80" as="geometry" />
        </mxCell>
        <mxCell id="PxKvnaStJWQL-dz4j-eh-5" value="&lt;b style=&quot;font-size: 16px&quot;&gt;&lt;br&gt;telemedicine&lt;/b&gt;" style="ellipse;whiteSpace=wrap;html=1;verticalAlign=top;" parent="1" vertex="1">
          <mxGeometry x="274" y="470" width="140" height="70" as="geometry" />
        </mxCell>
        <mxCell id="PxKvnaStJWQL-dz4j-eh-6" value="&lt;b&gt;&lt;font style=&quot;font-size: 16px&quot;&gt;&lt;br&gt;construct 3D medical models&lt;/font&gt;&lt;/b&gt;" style="ellipse;whiteSpace=wrap;html=1;verticalAlign=top;" parent="1" vertex="1">
          <mxGeometry x="274" y="290" width="140" height="90" as="geometry" />
        </mxCell>
        <mxCell id="PxKvnaStJWQL-dz4j-eh-8" value="&lt;b style=&quot;font-size: 19px&quot;&gt;&lt;br&gt;login&lt;/b&gt;" style="ellipse;whiteSpace=wrap;html=1;verticalAlign=top;" parent="1" vertex="1">
          <mxGeometry x="350" y="140" width="140" height="80" as="geometry" />
        </mxCell>
        <mxCell id="PxKvnaStJWQL-dz4j-eh-9" value="&lt;b&gt;&lt;font style=&quot;font-size: 18px&quot;&gt;train &lt;br&gt;medical skills&lt;/font&gt;&lt;/b&gt;" style="ellipse;whiteSpace=wrap;html=1;verticalAlign=top;" parent="1" vertex="1">
          <mxGeometry x="274" y="390" width="140" height="70" as="geometry" />
        </mxCell>
        <mxCell id="PxKvnaStJWQL-dz4j-eh-10" value="" style="endArrow=open;endFill=1;endSize=12;html=1;entryX=0.011;entryY=0.689;entryDx=0;entryDy=0;entryPerimeter=0;" parent="1" target="PxKvnaStJWQL-dz4j-eh-4" edge="1">
          <mxGeometry width="160" relative="1" as="geometry">
            <mxPoint x="170" y="280" as="sourcePoint" />
            <mxPoint x="330" y="280" as="targetPoint" />
          </mxGeometry>
        </mxCell>
        <mxCell id="PxKvnaStJWQL-dz4j-eh-11" value="" style="endArrow=open;endFill=1;endSize=12;html=1;entryX=0.004;entryY=0.663;entryDx=0;entryDy=0;entryPerimeter=0;" parent="1" target="PxKvnaStJWQL-dz4j-eh-8" edge="1">
          <mxGeometry width="160" relative="1" as="geometry">
            <mxPoint x="184" y="290" as="sourcePoint" />
            <mxPoint x="344" y="290" as="targetPoint" />
          </mxGeometry>
        </mxCell>
        <mxCell id="PxKvnaStJWQL-dz4j-eh-12" value="" style="endArrow=open;endFill=1;endSize=12;html=1;entryX=0;entryY=0.444;entryDx=0;entryDy=0;entryPerimeter=0;" parent="1" target="PxKvnaStJWQL-dz4j-eh-6" edge="1">
          <mxGeometry width="160" relative="1" as="geometry">
            <mxPoint x="180" y="320" as="sourcePoint" />
            <mxPoint x="220" y="350" as="targetPoint" />
          </mxGeometry>
        </mxCell>
        <mxCell id="PxKvnaStJWQL-dz4j-eh-13" value="" style="endArrow=open;endFill=1;endSize=12;html=1;entryX=0;entryY=0.307;entryDx=0;entryDy=0;entryPerimeter=0;" parent="1" target="PxKvnaStJWQL-dz4j-eh-9" edge="1">
          <mxGeometry width="160" relative="1" as="geometry">
            <mxPoint x="150" y="330" as="sourcePoint" />
            <mxPoint x="310" y="340" as="targetPoint" />
          </mxGeometry>
        </mxCell>
        <mxCell id="PxKvnaStJWQL-dz4j-eh-14" value="" style="endArrow=open;endFill=1;endSize=12;html=1;entryX=0.043;entryY=0.219;entryDx=0;entryDy=0;entryPerimeter=0;" parent="1" target="PxKvnaStJWQL-dz4j-eh-5" edge="1">
          <mxGeometry width="160" relative="1" as="geometry">
            <mxPoint x="140" y="340" as="sourcePoint" />
            <mxPoint x="300" y="340" as="targetPoint" />
          </mxGeometry>
        </mxCell>
        <mxCell id="PxKvnaStJWQL-dz4j-eh-15" value="" style="endArrow=open;endFill=1;endSize=12;html=1;entryX=0.971;entryY=0.761;entryDx=0;entryDy=0;entryPerimeter=0;" parent="1" target="PxKvnaStJWQL-dz4j-eh-4" edge="1">
          <mxGeometry width="160" relative="1" as="geometry">
            <mxPoint x="667" y="240" as="sourcePoint" />
            <mxPoint x="827" y="240" as="targetPoint" />
          </mxGeometry>
        </mxCell>
        <mxCell id="PxKvnaStJWQL-dz4j-eh-16" value="" style="endArrow=open;endFill=1;endSize=12;html=1;entryX=1;entryY=0.5;entryDx=0;entryDy=0;" parent="1" target="PxKvnaStJWQL-dz4j-eh-8" edge="1">
          <mxGeometry width="160" relative="1" as="geometry">
            <mxPoint x="650" y="260" as="sourcePoint" />
            <mxPoint x="810" y="260" as="targetPoint" />
          </mxGeometry>
        </mxCell>
        <mxCell id="PxKvnaStJWQL-dz4j-eh-17" value="&lt;b style=&quot;font-size: 17px&quot;&gt;&lt;br&gt;maintain system&lt;/b&gt;" style="ellipse;whiteSpace=wrap;html=1;verticalAlign=top;" parent="1" vertex="1">
          <mxGeometry x="430" y="330" width="150" height="80" as="geometry" />
        </mxCell>
        <mxCell id="PxKvnaStJWQL-dz4j-eh-18" value="&lt;b style=&quot;font-size: 18px&quot;&gt;&lt;br&gt;backup data&lt;/b&gt;" style="ellipse;whiteSpace=wrap;html=1;verticalAlign=top;" parent="1" vertex="1">
          <mxGeometry x="435" y="450" width="140" height="70" as="geometry" />
        </mxCell>
        <mxCell id="PxKvnaStJWQL-dz4j-eh-19" value="" style="endArrow=open;endFill=1;endSize=12;html=1;entryX=1;entryY=0.5;entryDx=0;entryDy=0;" parent="1" target="PxKvnaStJWQL-dz4j-eh-17" edge="1">
          <mxGeometry width="160" relative="1" as="geometry">
            <mxPoint x="640" y="290" as="sourcePoint" />
            <mxPoint x="610" y="300" as="targetPoint" />
          </mxGeometry>
        </mxCell>
        <mxCell id="PxKvnaStJWQL-dz4j-eh-20" value="" style="endArrow=open;endFill=1;endSize=12;html=1;" parent="1" edge="1">
          <mxGeometry width="160" relative="1" as="geometry">
            <mxPoint x="660" y="334.5" as="sourcePoint" />
            <mxPoint x="570" y="420" as="targetPoint" />
          </mxGeometry>
        </mxCell>
        <mxCell id="PxKvnaStJWQL-dz4j-eh-21" value="&amp;lt;&amp;lt;include&amp;gt;&amp;gt;" style="endArrow=open;endSize=12;dashed=1;html=1;entryX=0.5;entryY=0;entryDx=0;entryDy=0;exitX=0.5;exitY=1;exitDx=0;exitDy=0;" parent="1" source="PxKvnaStJWQL-dz4j-eh-17" target="PxKvnaStJWQL-dz4j-eh-18" edge="1">
          <mxGeometry width="160" relative="1" as="geometry">
            <mxPoint x="530" y="340" as="sourcePoint" />
            <mxPoint x="690" y="340" as="targetPoint" />
          </mxGeometry>
        </mxCell>
        <mxCell id="PxKvnaStJWQL-dz4j-eh-24" value="System boundary" style="text;html=1;strokeColor=none;fillColor=none;align=center;verticalAlign=middle;whiteSpace=wrap;rounded=0;" parent="1" vertex="1">
          <mxGeometry x="490" y="530" width="130" height="20" as="geometry" />
        </mxCell>
        <mxCell id="H9fmTRa8-kzFGvgyObSL-1" value="&lt;b style=&quot;font-size: 17px&quot;&gt;&amp;nbsp;manage &lt;br&gt;personal information&lt;/b&gt;" style="ellipse;whiteSpace=wrap;html=1;" vertex="1" parent="1">
          <mxGeometry x="380" y="230" width="140" height="80" as="geometry" />
        </mxCell>
        <mxCell id="H9fmTRa8-kzFGvgyObSL-2" value="" style="endArrow=classic;html=1;entryX=0;entryY=0.5;entryDx=0;entryDy=0;" edge="1" parent="1" target="H9fmTRa8-kzFGvgyObSL-1">
          <mxGeometry width="50" height="50" relative="1" as="geometry">
            <mxPoint x="200" y="310" as="sourcePoint" />
            <mxPoint x="440" y="300" as="targetPoint" />
          </mxGeometry>
        </mxCell>
        <mxCell id="H9fmTRa8-kzFGvgyObSL-3" value="" style="endArrow=classic;html=1;" edge="1" parent="1">
          <mxGeometry width="50" height="50" relative="1" as="geometry">
            <mxPoint x="660" y="280" as="sourcePoint" />
            <mxPoint x="520" y="270" as="targetPoint" />
          </mxGeometry>
        </mxCell>
      </root>
    </mxGraphModel>
  </diagram>
</mxfile>
